<?xml version="1.0" encoding="iso-8859-1"?>
<!-- Generator: Adobe Illustrator 19.0.0, SVG Export Plug-In . SVG Version: 6.00 Build 0)  -->
<svg version="1.1" id="Capa_1" xmlns="http://www.w3.org/2000/svg" xmlns:xlink="http://www.w3.org/1999/xlink" x="0px" y="0px"
	 viewBox="0 0 480.002 480.002" style="enable-background:new 0 0 480.002 480.002;" xml:space="preserve">
<path style="fill:#D3D3D3;" d="M90.92,463.505c29.352-2.632,33.096-15.504,69.016-15.504c40,0,40,16,80.008,16
	c39.992,0,39.992-16,79.984-16c35.976,0,39.696,12.896,69.144,15.504c2.552-3.16,4.728-6.672,6.36-10.528L472,272.001H8
	l76.568,180.976C86.2,456.833,88.376,460.345,90.92,463.505L90.92,463.505z"/>
<path style="fill:#3F4E56;" d="M8,160.001h160v112H8V160.001z"/>
<path style="fill:#A3EA0A;" d="M64,104.001h48v56H64V104.001z"/>
<g>
	<circle style="fill:#F5FAFC;" cx="136" cy="368.001" r="16"/>
	<circle style="fill:#F5FAFC;" cx="240" cy="368.001" r="16"/>
	<circle style="fill:#F5FAFC;" cx="344" cy="368.001" r="16"/>
</g>
<g>
	<path style="fill:#ED4720;" d="M224,216.001h80v56h-80V216.001z"/>
	<path style="fill:#ED4720;" d="M304,216.001h80v56h-80V216.001z"/>
	<path style="fill:#ED4720;" d="M264,160.001h80v56h-80V160.001z"/>
</g>
<circle style="fill:#F5FAFC;" cx="88" cy="216.001" r="24"/>
<path d="M94.664,455.025c-1.064-1.672-1.984-3.4-2.728-5.168L20.072,280.001H168h56h80h80h75.928l-71.864,169.856
	c-0.752,1.776-1.664,3.504-2.736,5.168c-1.328,0.976,14.672,8.976,17.544,0.904l76.496-180.808c1.048-2.472,0.784-5.296-0.696-7.536
	c-1.488-2.24-3.992-3.584-6.672-3.584h-80v-48c0-4.424-3.584-8-8-8h-32v-48c0-4.424-3.584-8-8-8h-80c-4.416,0-8,3.576-8,8v48h-32
	c-4.416,0-8,3.576-8,8v48h-40v-104c0-4.424-3.584-8-8-8h-48v-47.568l284.472-69.384c1.04,1.072,2.232,1.968,3.528,2.728v50.224
	c0,4.424,3.584,8,8,8c13.232,0,24,10.768,24,24s-10.768,24-24,24s-24-10.768-24-24h-16c0,22.056,17.944,40,40,40
	c22.056,0,40-17.944,40-40c0-19.32-13.768-35.48-32-39.192V37.777c4.76-2.776,8-7.88,8-13.776c0-8.824-7.176-16-16-16
	c-7.248,0-13.312,4.872-15.272,11.488L87.032,96.001H64c-4.416,0-8,3.576-8,8v48H8c-4.416,0-8,3.576-8,8v112
	c0,0.112,0.064,0.208,0.064,0.32c0.04,0.936,0.184,1.864,0.552,2.752c0.008,0.016,0.008,0.032,0.016,0.056l76.496,180.8
	C80,464.001,96,456.001,94.664,455.025L94.664,455.025z M16,168.001h48h48h48v96H16V168.001z M72,112.001h32v40H72V112.001z
	 M232,224.001h32h32v40h-64V224.001z M272,168.001h64v40h-32h-32V168.001z M376,264.001h-64v-40h32h32V264.001z"/>
<path d="M136,344.001c-13.232,0-24,10.768-24,24s10.768,24,24,24s24-10.768,24-24S149.232,344.001,136,344.001z M136,376.001
	c-4.408,0-8-3.584-8-8s3.592-8,8-8s8,3.584,8,8S140.408,376.001,136,376.001z"/>
<path d="M240,344.001c-13.232,0-24,10.768-24,24s10.768,24,24,24s24-10.768,24-24S253.232,344.001,240,344.001z M240,376.001
	c-4.408,0-8-3.584-8-8s3.592-8,8-8c4.408,0,8,3.584,8,8S244.408,376.001,240,376.001z"/>
<path d="M344,344.001c-13.232,0-24,10.768-24,24s10.768,24,24,24s24-10.768,24-24S357.232,344.001,344,344.001z M344,376.001
	c-4.408,0-8-3.584-8-8s3.592-8,8-8c4.408,0,8,3.584,8,8S348.408,376.001,344,376.001z"/>
<path d="M88,184.001c-17.648,0-32,14.352-32,32s14.352,32,32,32s32-14.352,32-32S105.648,184.001,88,184.001z M88,232.001
	c-8.824,0-16-7.176-16-16s7.176-16,16-16s16,7.176,16,16S96.824,232.001,88,232.001z"/>
<path style="fill:#55D5F2;" d="M399.968,472.001c-21.552,0-32.448-4.36-42.992-8.568c-9.552-3.824-18.584-7.432-37.048-7.432
	c-18.456,0-27.472,3.608-37.016,7.432c-10.536,4.208-21.424,8.568-42.968,8.568s-32.44-4.36-42.976-8.568
	c-9.552-3.824-18.568-7.432-37.032-7.432c-18.456,0-27.472,3.608-37.016,7.432c-10.536,4.208-21.424,8.568-42.96,8.568
	c-21.528,0-32.416-4.36-42.952-8.568c-9.544-3.824-18.56-7.432-37.008-7.432v-16c21.528,0,32.424,4.36,42.952,8.568
	c9.544,3.824,18.56,7.432,37.008,7.432c18.456,0,27.472-3.608,37.016-7.432c10.536-4.208,21.424-8.568,42.96-8.568
	c21.544,0,32.44,4.36,42.976,8.568c9.552,3.824,18.576,7.432,37.032,7.432s27.472-3.608,37.016-7.432
	c10.544-4.208,21.432-8.568,42.968-8.568c21.552,0,32.448,4.36,42.992,8.568c9.552,3.824,18.576,7.432,37.048,7.432
	c18.472,0,27.496-3.608,37.048-7.432c10.536-4.208,21.432-8.568,42.984-8.568v16c-18.472,0-27.496,3.608-37.048,7.432
	C432.408,467.641,421.512,472.001,399.968,472.001L399.968,472.001z"/>
<g>
</g>
<g>
</g>
<g>
</g>
<g>
</g>
<g>
</g>
<g>
</g>
<g>
</g>
<g>
</g>
<g>
</g>
<g>
</g>
<g>
</g>
<g>
</g>
<g>
</g>
<g>
</g>
<g>
</g>
</svg>
