<?xml version="1.0" encoding="iso-8859-1"?>
<!-- Generator: Adobe Illustrator 19.0.0, SVG Export Plug-In . SVG Version: 6.00 Build 0)  -->
<svg version="1.1" id="Capa_1" xmlns="http://www.w3.org/2000/svg" xmlns:xlink="http://www.w3.org/1999/xlink" x="0px" y="0px"
	 viewBox="0 0 480.002 480.002" style="enable-background:new 0 0 480.002 480.002;" xml:space="preserve">
<g>
	<g>
		<path d="M136,343.988c-13.255,0-24,10.745-24,24s10.745,24,24,24s24-10.745,24-24C159.986,354.739,149.249,344.003,136,343.988z
			 M136,375.988c-4.418,0-8-3.582-8-8s3.582-8,8-8s8,3.582,8,8C143.996,372.405,140.416,375.984,136,375.988z"/>
	</g>
</g>
<g>
	<g>
		<path d="M240,343.988c-13.255,0-24,10.745-24,24s10.745,24,24,24s24-10.745,24-24C263.986,354.739,253.249,344.003,240,343.988z
			 M240,375.988c-4.418,0-8-3.582-8-8s3.582-8,8-8s8,3.582,8,8C247.996,372.405,244.416,375.984,240,375.988z"/>
	</g>
</g>
<g>
	<g>
		<path d="M344,343.988c-13.255,0-24,10.745-24,24s10.745,24,24,24s24-10.745,24-24C367.986,354.739,357.249,344.003,344,343.988z
			 M344,375.988c-4.418,0-8-3.582-8-8s3.582-8,8-8s8,3.582,8,8C351.996,372.405,348.416,375.984,344,375.988z"/>
	</g>
</g>
<g>
	<g>
		<path d="M437.012,448.559c-9.375,4.185-19.435,6.625-29.685,7.198l72.103-180.808c1.637-4.101-0.36-8.754-4.461-10.391
			c-0.944-0.377-1.952-0.57-2.968-0.57h-80v-48c0.001-4.417-3.579-7.999-7.996-8c-0.001,0-0.003,0-0.004,0h-32v-48
			c0.001-4.417-3.579-7.999-7.996-8c-0.001,0-0.003,0-0.004,0h-80c-4.417-0.001-7.999,3.579-8,7.996c0,0.001,0,0.003,0,0.004v48h-32
			c-4.417-0.001-7.999,3.579-8,7.996c0,0.001,0,0.003,0,0.004v48h-40v-104c0.001-4.417-3.579-7.999-7.996-8
			c-0.001,0-0.003,0-0.004,0h-48v-47.757l283.161-70.79c1.302,1.755,2.949,3.225,4.839,4.321v66.226
			c-0.001,4.417,3.579,7.999,7.996,8c0.001,0,0.003,0,0.004,0c13.255,0,24,10.745,24,24s-10.745,24-24,24s-24-10.745-24-24h-16
			c0.002,22.091,17.912,39.998,40.003,39.997c22.091-0.002,39.998-17.912,39.997-40.003c-0.002-19.006-13.378-35.387-32-39.188
			v-59.03c7.631-4.41,10.241-14.171,5.831-21.802c-4.41-7.631-14.171-10.241-21.802-5.831c-2.89,1.67-5.184,4.205-6.558,7.248
			L87.027,95.988H64c-4.417-0.001-7.999,3.579-8,7.996c0,0.001,0,0.003,0,0.004v48H8c-4.417-0.001-7.999,3.579-8,7.996
			c0,0.001,0,0.003,0,0.004l0.57,114.961l0.056,0.139l0.01,0.026l72.04,180.648c-10.264-0.566-20.338-3.008-29.723-7.204
			c-13.509-5.993-28.178-8.92-42.953-8.57v16c12.736-0.319,25.382,2.22,37.008,7.43c13.508,5.993,28.176,8.92,42.949,8.57
			c14.779,0.35,29.451-2.577,42.965-8.57c11.629-5.21,24.277-7.748,37.016-7.43c12.744-0.319,25.397,2.22,37.031,7.43
			c13.518,5.993,28.194,8.92,42.977,8.57c14.779,0.35,29.451-2.577,42.965-8.57c11.629-5.21,24.277-7.748,37.016-7.43
			c12.75-0.319,25.409,2.22,37.051,7.43c13.522,5.994,28.202,8.921,42.988,8.57c14.785,0.35,29.464-2.577,42.984-8.57
			c11.641-5.21,24.301-7.748,37.051-7.43v-16C465.214,439.638,450.533,442.565,437.012,448.559z M376,223.988v40h-64v-40H376z
			 M272,167.988h64v40h-64V167.988z M232,223.988h64v40h-64V223.988z M72,111.988h32v40H72V111.988z M16,167.988h144v96H16V167.988z
			 M390.183,455.562c-9.415-0.807-18.63-3.174-27.269-7.003c-13.521-5.994-28.202-8.921-42.988-8.57
			c-14.777-0.35-29.449,2.577-42.961,8.57c-11.63,5.21-24.28,7.749-37.02,7.43c-12.744,0.319-25.397-2.22-37.031-7.43
			c-13.518-5.993-28.194-8.92-42.977-8.57c-14.777-0.35-29.449,2.577-42.961,8.57c-8.605,3.819-17.784,6.183-27.163,6.997
			L19.805,279.988h440.391L390.183,455.562z"/>
	</g>
</g>
<g>
	<g>
		<path d="M88,183.988c-17.673,0-32,14.327-32,32s14.327,32,32,32s32-14.327,32-32C119.981,198.323,105.665,184.007,88,183.988z
			 M88,231.988c-8.837,0-16-7.163-16-16s7.163-16,16-16s16,7.163,16,16C103.99,224.821,96.832,231.978,88,231.988z"/>
	</g>
</g>
<g>
</g>
<g>
</g>
<g>
</g>
<g>
</g>
<g>
</g>
<g>
</g>
<g>
</g>
<g>
</g>
<g>
</g>
<g>
</g>
<g>
</g>
<g>
</g>
<g>
</g>
<g>
</g>
<g>
</g>
</svg>
