<svg height="456pt" viewBox="0 -51 456.721 456" width="456pt" xmlns="http://www.w3.org/2000/svg"><path d="m299.363281 51.359375v-51h-92v51zm0 0"/><path d="m203.363281 130.359375h92v51h-92zm0 0"/><path d="m309.363281 181.359375h27.828125l34.917969-37.75c1.324219-1.433594 3.1875-2.25 5.140625-2.25h24.113281v-11h-92zm0 0"/><path d="m153.363281 65.359375h92v51h-92zm0 0"/><path d="m259.363281 65.359375h92v51h-92zm0 0"/><path d="m29.363281 86.359375h34v55h-34zm0 0"/><path d="m126.582031 143.828125 31.902344 37.53125h30.878906v-51h-92v11h23.882813c2.054687 0 4.003906.902344 5.335937 2.46875zm0 0"/><path d="m38.363281 58.359375h15v14h-15zm0 0"/><path d="m447.492188 300.171875c-16.570313 0-24.347657-4.238281-33.355469-9.144531-9.335938-5.089844-19.917969-10.855469-40.054688-10.855469s-30.71875 5.765625-40.054687 10.855469c-9.007813 4.90625-16.789063 9.144531-33.355469 9.144531s-24.347656-4.238281-33.355469-9.144531c-9.339844-5.089844-19.921875-10.855469-40.054687-10.855469-20.136719 0-30.722657 5.765625-40.058594 10.855469-9.007813 4.90625-16.789063 9.144531-33.359375 9.144531s-24.351562-4.238281-33.359375-9.144531c-9.335937-5.089844-19.917969-10.855469-40.058594-10.855469-20.136719 0-30.71875 5.765625-40.0625 10.855469-9.007812 4.90625-16.789062 9.144531-33.359375 9.144531-3.863281 0-6.99999975 3.132813-6.99999975 7s3.13671875 7 6.99999975 7c20.140625 0 30.722656-5.765625 40.058594-10.851563 9.007812-4.910156 16.789062-9.148437 33.359375-9.148437s24.351563 4.238281 33.359375 9.148437c9.339844 5.085938 19.921875 10.851563 40.058594 10.851563 20.140625 0 30.71875-5.765625 40.058594-10.851563 9.007812-4.910156 16.785156-9.148437 33.359374-9.148437 16.570313 0 24.347657 4.238281 33.355469 9.148437 9.335938 5.085938 19.917969 10.851563 40.054688 10.851563s30.71875-5.765625 40.054687-10.851563c9.007813-4.910156 16.785156-9.148437 33.355469-9.148437 16.566406 0 24.347656 4.238281 33.355469 9.148437 9.335937 5.085938 19.917968 10.851563 40.054687 10.851563 3.867188 0 7-3.132813 7-7s-3.132812-7-7-7zm0 0"/><path d="m447.492188 340.171875c-16.570313 0-24.347657-4.238281-33.355469-9.144531-9.335938-5.089844-19.917969-10.855469-40.054688-10.855469s-30.71875 5.765625-40.054687 10.855469c-9.007813 4.90625-16.789063 9.144531-33.355469 9.144531s-24.347656-4.238281-33.355469-9.144531c-9.339844-5.089844-19.921875-10.855469-40.054687-10.855469-20.136719 0-30.722657 5.765625-40.058594 10.855469-9.007813 4.90625-16.789063 9.144531-33.359375 9.144531s-24.351562-4.238281-33.359375-9.144531c-9.335937-5.089844-19.917969-10.855469-40.058594-10.855469-20.136719 0-30.71875 5.765625-40.0625 10.855469-9.007812 4.90625-16.789062 9.144531-33.359375 9.144531-3.863281 0-6.99999975 3.132813-6.99999975 7s3.13671875 7 6.99999975 7c20.140625 0 30.722656-5.765625 40.058594-10.851563 9.007812-4.910156 16.789062-9.148437 33.359375-9.148437s24.351563 4.238281 33.359375 9.148437c9.339844 5.085938 19.921875 10.851563 40.058594 10.851563 20.140625 0 30.71875-5.765625 40.058594-10.851563 9.007812-4.910156 16.785156-9.148437 33.359374-9.148437 16.570313 0 24.347657 4.238281 33.355469 9.148437 9.335938 5.085938 19.917969 10.851563 40.054688 10.851563s30.71875-5.765625 40.054687-10.851563c9.007813-4.910156 16.785156-9.148437 33.355469-9.148437 16.566406 0 24.347656 4.238281 33.355469 9.148437 9.335937 5.085938 19.917968 10.851563 40.054687 10.851563 3.867188 0 7-3.132813 7-7s-3.132812-7-7-7zm0 0"/><path d="m380.308594 155.359375-34.914063 37.753906c-1.328125 1.433594-3.1875 2.246094-5.140625 2.246094h-185.007812c-2.054688 0-4.003906-.902344-5.335938-2.464844l-31.898437-37.535156h-111.085938l33.550781 94.511719c-.035156.019531-.070312.085937-.109374.105468-9.007813 4.910157-16.789063 9.171876-33.359376 9.171876-3.871093 0-7.007812 3.136718-7.007812 7.007812s3.136719 7.011719 7.007812 7.011719c20.140626 0 30.722657-5.765625 40.058594-10.851563 9.007813-4.910156 16.789063-9.144531 33.359375-9.144531 16.570313 0 24.351563 4.238281 33.359375 9.148437 9.339844 5.085938 19.921875 10.851563 40.058594 10.851563 20.140625 0 30.71875-5.765625 40.058594-10.851563 9.007812-4.910156 16.785156-9.148437 33.359375-9.148437 16.570312 0 24.347656 4.238281 33.355469 9.148437 9.335937 5.085938 19.917968 10.851563 40.054687 10.851563s30.71875-5.765625 40.054687-10.851563c9.007813-4.910156 16.785157-9.148437 33.355469-9.148437 16.566407 0 24.347657 4.238281 33.355469 9.148437 9.335938 5.085938 19.917969 10.851563 40.054688 10.851563 3.867187 0 7-3.132813 7-7s-3.132813-7-7-7c-16.261719 0-24.058594-4.179687-32.855469-8.96875l42.085937-94.84375zm0 0"/></svg>