<?xml version="1.0" encoding="iso-8859-1"?>
<!-- Generator: Adobe Illustrator 19.0.0, SVG Export Plug-In . SVG Version: 6.00 Build 0)  -->
<svg  version="1.1" id="Capa_1" xmlns="http://www.w3.org/2000/svg" xmlns:xlink="http://www.w3.org/1999/xlink" x="0px" y="0px"
	 viewBox="0 0 511.999 511.999" style="enable-background:new 0 0 511.999 511.999;" xml:space="preserve">
<g>
	<g>
		<path d="M501.986,437.995c-15.296,0-30.035-6.252-40.719-17.18c0.433-42.969,17.358-83.303,47.79-113.734
			c2.859-2.86,3.716-7.161,2.168-10.898c-1.548-3.736-5.194-6.173-9.239-6.173h-33.999v-30c0-24.145-17.205-44.347-39.999-48.992
			v-9.628c0-15.348-12.485-27.832-27.832-27.832H275.826c-15.348,0-27.832,12.486-27.832,27.832v9.628
			c-22.794,4.646-39.999,24.846-39.999,48.992v30h-14.324l-41.35-154.785c-1.169-4.375-5.132-7.419-9.661-7.419h-12.5v-27.166
			c0-5.523-4.478-10-10-10s-10,4.477-10,10v27.166H74.828V63.476c0-5.523-4.478-10-10-10s-10,4.477-10,10v64.331H29.999
			c-5.522,0-10,4.477-10,10V290.01h-9.87c-4.045,0-7.691,2.437-9.239,6.173c-1.547,3.737-0.691,8.038,2.168,10.898
			c30.401,30.4,47.322,70.683,47.788,113.602C40.154,431.692,25.357,437.994,10,437.994c-5.522,0-10,4.478-10,10s4.478,10,10,10
			c18.01,0,35.46-6.396,49.199-17.805c13.739,11.41,31.188,17.805,49.199,17.805c18.012,0,35.459-6.395,49.198-17.805
			c13.739,11.411,31.187,17.805,49.199,17.805c18.01,0,35.46-6.396,49.199-17.805c13.739,11.41,31.188,17.805,49.199,17.805
			c18.011,0,35.46-6.395,49.199-17.805c13.739,11.411,31.187,17.805,49.198,17.805s35.46-6.396,49.199-17.805
			c13.739,11.41,31.188,17.805,49.199,17.805c5.522,0,10-4.478,10-10S507.508,437.995,501.986,437.995z M417.989,251.001
			c5.522,0,10-4.477,10-10v-9.269c11.639,4.127,19.999,15.242,19.999,28.278v29.999h-59.998V260.01c0-13.036,8.361-24.15,20-28.278
			v9.269C407.989,246.524,412.467,251.001,417.989,251.001z M347.99,193.557h52.166c4.319,0,7.833,3.514,7.833,7.833v9.628
			c-12.192,2.485-22.783,9.42-29.999,19.027c-7.217-9.609-17.808-16.544-29.999-19.027V193.557z M337.991,251.001
			c5.522,0,10-4.477,10-10v-9.269c11.639,4.128,19.999,15.243,19.999,28.278v29.999h-59.998V260.01
			c0-13.036,8.361-24.15,19.999-28.278v9.269C327.991,246.524,332.469,251.001,337.991,251.001z M267.993,201.39
			c0-4.319,3.514-7.833,7.833-7.833h52.166v17.461c-12.192,2.485-22.782,9.42-29.999,19.027
			c-7.217-9.609-17.808-16.544-29.999-19.027V201.39z M227.994,260.01c0-13.036,8.361-24.15,19.999-28.278v9.269
			c0,5.523,4.478,10,10,10s10-4.477,10-10v-9.269c11.639,4.128,19.999,15.243,19.999,28.278v29.999h-59.998V260.01z M39.999,265.47
			h60.998c5.522,0,10-4.477,10-10c0-5.523-4.478-10-10-10H39.999v-97.664h94.981l37.989,142.203H39.999V265.47z M441.245,422.504
			v1.24c-10.351,9.115-23.78,14.251-37.659,14.251c-15.835,0-31.088-6.686-41.847-18.344c-1.893-2.051-4.558-3.218-7.349-3.218
			s-5.456,1.167-7.349,3.218c-10.759,11.658-26.012,18.344-41.851,18.344c-15.838,0-31.092-6.687-41.851-18.344
			c-1.894-2.051-4.558-3.218-7.349-3.218s-5.455,1.167-7.349,3.218c-10.759,11.657-26.013,18.344-41.851,18.344
			c-15.839,0-31.092-6.686-41.851-18.344c-1.893-2.051-4.558-3.218-7.349-3.218c-2.791,0-5.456,1.167-7.349,3.218
			c-10.759,11.658-26.012,18.344-41.85,18.344c-13.822,0-27.197-5.094-37.529-14.139v-1.352c0-41.277-13.555-80.469-38.562-112.494
			h447.505C454.799,342.035,441.245,381.227,441.245,422.504z"/>
	</g>
</g>
<g>
	<g>
		<path d="M501.986,491.993c-15.838,0-31.092-6.687-41.851-18.343c-1.894-2.051-4.558-3.218-7.349-3.218
			c-2.791,0-5.455,1.167-7.349,3.218c-10.759,11.657-26.013,18.343-41.851,18.343c-15.838,0-31.091-6.686-41.85-18.343
			c-1.893-2.051-4.558-3.218-7.349-3.218c-2.791,0-5.456,1.167-7.349,3.218c-10.759,11.658-26.012,18.343-41.851,18.343
			c-15.838,0-31.092-6.687-41.851-18.343c-1.894-2.051-4.558-3.218-7.349-3.218c-2.791,0-5.455,1.167-7.349,3.218
			c-10.759,11.657-26.013,18.343-41.851,18.343c-15.839,0-31.092-6.686-41.851-18.343c-1.893-2.051-4.558-3.218-7.349-3.218
			c-2.791,0-5.456,1.167-7.349,3.218c-10.759,11.658-26.012,18.343-41.85,18.343c-15.838,0-31.092-6.687-41.851-18.343
			c-1.894-2.051-4.558-3.218-7.349-3.218c-2.791,0-5.455,1.167-7.349,3.218C41.092,485.306,25.837,491.993,10,491.993
			c-5.522,0-10,4.478-10,10s4.478,10,10,10c18.01,0,35.46-6.396,49.199-17.806c13.739,11.41,31.188,17.806,49.199,17.806
			c18.012,0,35.459-6.395,49.198-17.806c13.739,11.411,31.187,17.806,49.199,17.806c18.01,0,35.46-6.396,49.199-17.806
			c13.739,11.41,31.188,17.806,49.199,17.806c18.011,0,35.46-6.395,49.199-17.806c13.739,11.411,31.187,17.806,49.198,17.806
			s35.46-6.396,49.199-17.806c13.739,11.41,31.188,17.806,49.199,17.806c5.522,0,10-4.478,10-10S507.508,491.993,501.986,491.993z"
			/>
	</g>
</g>
<g>
	<g>
		<path d="M92.495,162.475c-16.542,0-29.999,13.458-29.999,29.999s13.458,29.999,29.999,29.999
			c16.542,0,29.999-13.458,29.999-29.999S109.036,162.475,92.495,162.475z M92.495,202.474c-5.514,0-10-4.486-10-10s4.486-10,10-10
			c5.514,0,10,4.486,10,10S98.008,202.474,92.495,202.474z"/>
	</g>
</g>
<g>
	<g>
		<path d="M121.526,352.957H94.821c-5.522,0-10,4.478-10,10s4.478,10,10,10h26.704c5.522,0,10-4.478,10-10
			S127.049,352.957,121.526,352.957z"/>
	</g>
</g>
<g>
	<g>
		<path d="M195.435,352.957h-26.703c-5.522,0-10,4.478-10,10s4.478,10,10,10h26.703c5.522,0,10-4.478,10-10
			S200.958,352.957,195.435,352.957z"/>
	</g>
</g>
<g>
	<g>
		<path d="M269.346,352.957h-26.704c-5.522,0-10,4.478-10,10s4.478,10,10,10h26.704c5.522,0,10-4.478,10-10
			S274.867,352.957,269.346,352.957z"/>
	</g>
</g>
<g>
	<g>
		<path d="M323.621,355.887c-1.86-1.86-4.441-2.93-7.07-2.93c-2.63,0-5.21,1.07-7.069,2.93c-1.86,1.86-2.931,4.44-2.931,7.07
			s1.07,5.21,2.931,7.07c1.859,1.859,4.439,2.93,7.069,2.93c2.63,0,5.21-1.07,7.07-2.93s2.93-4.44,2.93-7.07
			S325.482,357.747,323.621,355.887z"/>
	</g>
</g>
<g>
	<g>
		<path d="M417.165,352.957H358.99c-5.522,0-10,4.478-10,10s4.478,10,10,10h58.174c5.522,0,10-4.478,10-10
			S422.686,352.957,417.165,352.957z"/>
	</g>
</g>
<g>
	<g>
		<path d="M144.065,248.4c-1.859-1.86-4.439-2.93-7.069-2.93s-5.21,1.07-7.07,2.93c-1.86,1.86-2.93,4.44-2.93,7.07
			c0,2.63,1.069,5.21,2.93,7.07c1.86,1.859,4.44,2.93,7.07,2.93s5.21-1.07,7.069-2.93c1.86-1.86,2.931-4.44,2.931-7.07
			C146.996,252.84,145.926,250.26,144.065,248.4z"/>
	</g>
</g>
<g>
	<g>
		<path d="M497.604,59.977c-0.007-0.009-0.014-0.018-0.021-0.027L455.011,3.954c-1.887-2.481-4.821-3.94-7.938-3.948
			c-3.123,0.042-6.058,1.438-7.956,3.911l-42.761,55.703c-0.106,0.139-0.209,0.28-0.308,0.423
			c-9.253,11.73-14.34,26.442-14.34,41.52c0.002,36.574,29.225,66.329,65.146,66.329s65.144-29.755,65.144-66.33
			C511.999,86.47,506.889,71.714,497.604,59.977z M446.855,147.894c-24.892,0-45.145-20.783-45.145-46.331
			c0-10.784,3.689-21.283,10.387-29.565c0.205-0.253,0.396-0.516,0.573-0.784l34.342-44.737l34.498,45.375
			c0.095,0.131,0.192,0.26,0.293,0.387C488.379,80.48,492,90.895,492,101.564C492,127.11,471.747,147.894,446.855,147.894z"/>
	</g>
</g>
<g>
</g>
<g>
</g>
<g>
</g>
<g>
</g>
<g>
</g>
<g>
</g>
<g>
</g>
<g>
</g>
<g>
</g>
<g>
</g>
<g>
</g>
<g>
</g>
<g>
</g>
<g>
</g>
<g>
</g>
</svg>
