<?xml version="1.0" encoding="iso-8859-1"?>
<!-- Generator: Adobe Illustrator 19.0.0, SVG Export Plug-In . SVG Version: 6.00 Build 0)  -->
<svg version="1.1" id="Capa_1" xmlns="http://www.w3.org/2000/svg" xmlns:xlink="http://www.w3.org/1999/xlink" x="0px" y="0px"
	 viewBox="0 0 512 512" style="enable-background:new 0 0 512 512;" xml:space="preserve">
<path style="fill:#6F7475;" d="M305.999,130.999h-20c-5.523,0-10,4.477-10,10v73.668h40v-73.668
	C315.999,135.476,311.522,130.999,305.999,130.999z"/>
<path style="fill:#91928F;" d="M295.999,130.999h-10c-5.523,0-10,4.477-10,10v73.668h20V130.999z"/>
<path style="fill:#6F7475;" d="M165.998,284.666h-40v-30c0-11.046,8.954-20,20-20l0,0c11.046,0,20,8.954,20,20V284.666z"/>
<path style="fill:#91928F;" d="M135.997,237.364c-5.972,3.46-10,9.904-10,17.303v30h20v-30
	C145.997,247.268,141.97,240.824,135.997,237.364z"/>
<path style="fill:#4E565A;" d="M345.999,204.666H245.998c-5.523,0-10,4.477-10,10v60H85.997c-5.523,0-10,4.477-10,10v40h170.001v-10
	h110.001V214.666C355.999,209.143,351.522,204.666,345.999,204.666z"/>
<path style="fill:#91928F;" d="M145.997,274.666h-60c-5.523,0-10,4.477-10,10v40h60v-40
	C135.997,279.143,140.474,274.666,145.997,274.666z"/>
<path style="fill:#7F8383;" d="M235.998,214.666v60h60v-70.001h-50C240.475,204.666,235.998,209.143,235.998,214.666z"/>
<path style="fill:#6F7475;" d="M498.726,284.666H344.699c-9.916,0-19.504,3.547-27.033,10l0,0c-7.528,6.453-17.117,10-27.033,10
	H23.39L55.198,381h369.571c4.87,0,7.539-5.67,4.435-9.423c-5.003-6.05-6.381-14.347-3.51-21.653
	c11.724-29.829,39.827-51.422,73.236-53.714c2.879-0.197,5.33-2.432,5.553-5.309C504.745,287.503,502.067,284.666,498.726,284.666z"
	/>
<path style="fill:#4E565A;" d="M321.695,320.614c-15.138,27.039,4.4,60.387,35.388,60.387h67.686c4.954,0,7.631-5.869,4.268-9.617
	c-5.224-5.822-6.164-14.317-3.29-21.592c7.794-19.731,22.763-35.837,41.686-45.124H348.218c-10.883,0-20.906,5.897-26.216,15.398
	C321.901,320.246,321.799,320.429,321.695,320.614z"/>
<path style="fill:#91928F;" d="M44.868,352.061c-3.3-11.736-5.747-23.828-7.291-36.2c-0.742-5.949,3.938-11.193,9.934-11.193h-30
	c-5.995,0-10.676,5.244-9.934,11.193c1.544,12.373,3.991,24.464,7.291,36.2c4.828,17.167,20.616,28.94,38.449,28.94h30
	C65.484,381.001,49.696,369.228,44.868,352.061z"/>
<path d="M508.468,281.425c-2.505-2.707-6.056-4.259-9.742-4.259H344.699c-11.698,0-23.032,4.192-31.913,11.806
	c-6.165,5.284-14.032,8.194-22.152,8.194H143.497v-12.5c0-1.379,1.122-2.5,2.5-2.5h90.001h60c4.143,0,7.5-3.357,7.5-7.5v-40
	c0-4.143-3.357-7.5-7.5-7.5s-7.5,3.357-7.5,7.5v32.5h-45v-52.5c0-1.379,1.122-2.5,2.5-2.5h100.001c1.379,0,2.5,1.121,2.5,2.5v40
	c0,4.143,3.357,7.5,7.5,7.5s7.5-3.357,7.5-7.5v-40c0-9.649-7.851-17.5-17.5-17.5h-22.5V168.58h7.5c4.142,0,7.5-3.357,7.5-7.5
	s-3.358-7.5-7.5-7.5h-7.5v-12.58c0-9.649-7.851-17.5-17.5-17.5h-20c-9.649,0-17.5,7.851-17.5,17.5v12.58h-7.5
	c-4.142,0-7.5,3.357-7.5,7.5s3.358,7.5,7.5,7.5h7.5v28.586h-22.5c-9.649,0-17.5,7.851-17.5,17.5v52.5h-55v-12.5
	c0-15.163-12.336-27.5-27.5-27.5c-15.164,0-27.5,12.337-27.5,27.5v12.5h-32.5c-9.649,0-17.5,7.851-17.5,17.5v12.5H17.51
	c-5.023,0-9.813,2.16-13.139,5.928c-3.311,3.749-4.855,8.741-4.238,13.694c1.577,12.629,4.104,25.18,7.514,37.303
	c5.697,20.26,24.477,34.409,45.669,34.409h1.88c4.142,0,7.5-3.357,7.5-7.5s-3.358-7.5-7.5-7.5h-1.88
	c-14.501,0-27.344-9.651-31.229-23.47c-3.207-11.403-5.585-23.213-7.069-35.1c-0.117-0.939,0.324-1.6,0.597-1.909
	c0.282-0.319,0.903-0.855,1.895-0.855h273.122c11.698,0,23.033-4.192,31.914-11.806c6.165-5.284,14.031-8.194,22.151-8.194h134.404
	c-27.147,7.912-49.814,28.111-60.389,55.014c-3.427,8.718-2.387,18.511,2.624,26.32h-64.254c-11.859,0-22.52-6.109-28.518-16.341
	c-6.001-10.237-6.122-22.529-0.32-32.892l0.31-0.555c2.015-3.619,0.715-8.187-2.904-10.201c-3.619-2.017-8.186-0.715-10.201,2.904
	l-0.298,0.533c-8.426,15.049-8.249,32.916,0.473,47.795c1.885,3.215,4.102,6.13,6.569,8.756H85.318c-4.142,0-7.5,3.357-7.5,7.5
	s3.358,7.5,7.5,7.5h339.451c5.188,0,9.782-2.915,11.992-7.608c2.21-4.694,1.529-10.094-1.777-14.096
	c-3.287-3.975-4.173-9.389-2.309-14.129c10.893-27.715,37.102-46.939,66.769-48.976c6.633-0.454,12.014-5.704,12.518-12.213
	C512.245,287.794,510.973,284.13,508.468,281.425z M283.499,140.999c0-1.379,1.121-2.5,2.5-2.5h20c1.379,0,2.5,1.121,2.5,2.5v12.58
	h-25V140.999z M283.499,168.58h25v28.586h-25V168.58z M133.497,254.666c0-6.893,5.607-12.5,12.5-12.5c6.893,0,12.5,5.607,12.5,12.5
	v12.5h-25V254.666z M83.497,284.666c0-1.379,1.122-2.5,2.5-2.5h42.7c-0.118,0.819-0.2,1.649-0.2,2.5v12.5h-45V284.666z"/>
<g>
</g>
<g>
</g>
<g>
</g>
<g>
</g>
<g>
</g>
<g>
</g>
<g>
</g>
<g>
</g>
<g>
</g>
<g>
</g>
<g>
</g>
<g>
</g>
<g>
</g>
<g>
</g>
<g>
</g>
</svg>
